<?xml version="1.0" standalone="no"?>
<!DOCTYPE svg PUBLIC "-//W3C//DTD SVG 20010904//EN"
 "http://www.w3.org/TR/2001/REC-SVG-20010904/DTD/svg10.dtd">
<svg version="1.0" xmlns="http://www.w3.org/2000/svg"
 width="500.000000pt" height="500.000000pt" viewBox="0 0 500.000000 500.000000"
 preserveAspectRatio="xMidYMid meet">
<metadata>
Created by potrace 1.14, written by Peter Selinger 2001-2017
</metadata>
<g transform="translate(0.000000,500.000000) scale(0.100000,-0.100000)"
fill="#000000" stroke="none">
<path d="M949 4358 c-3 -36 -4 -415 -1 -428 5 -23 231 -23 233 0 1 8 1 57 1
108 l0 92 94 0 c52 1 627 1 1279 1 652 0 1202 0 1223 -1 l37 0 0 -107 0 -108
118 0 117 -1 0 228 0 228 -1550 0 c-1233 0 -1550 -3 -1551 -12z"/>
<path d="M957 3760 c-10 -4 -15 -138 -8 -221 1 -15 135 -16 1551 -16 l1550 0
0 118 c0 88 -3 119 -12 120 -58 4 -3072 3 -3081 -1z"/>
<path d="M949 3356 c-3 -35 -4 -684 -1 -698 2 -9 11 -15 20 -13 10 1 40 6 67
9 154 19 145 16 146 42 0 13 0 161 0 329 0 168 0 314 0 325 -1 19 -8 20 -116
19 -77 -1 -115 -5 -116 -13z"/>
<path d="M1564 3362 c-15 -10 -12 -932 4 -993 26 -105 101 -248 194 -374 77
-103 337 -362 458 -455 25 -19 47 -37 50 -40 3 -3 29 -23 58 -44 l52 -38 0
-224 0 -224 -57 37 c-50 31 -135 90 -168 116 -5 4 -46 34 -90 66 -342 252
-637 580 -769 856 -41 85 -91 223 -83 231 3 3 16 7 29 8 161 19 150 16 143 45
-13 61 -15 79 -17 143 l-2 66 -40 -3 c-23 -3 -57 -6 -76 -9 -19 -2 -60 -7 -90
-10 -133 -15 -205 -29 -212 -39 -4 -7 -5 -25 -3 -42 2 -16 7 -55 9 -85 8 -80
13 -104 52 -220 127 -383 456 -783 945 -1152 186 -141 483 -331 536 -344 27
-7 133 53 349 197 109 73 356 257 374 278 3 3 27 24 55 46 67 54 288 274 362
360 123 144 244 328 307 468 33 73 82 212 90 257 2 14 8 43 13 65 6 22 11 73
12 113 2 63 0 72 -16 73 -10 1 -22 2 -28 3 -5 1 -41 6 -80 10 -38 5 -78 10
-87 12 -9 1 -48 5 -85 9 -37 3 -80 8 -94 11 l-26 5 -7 -88 c-3 -48 -9 -102
-12 -119 -7 -35 -15 -32 130 -49 21 -2 40 -6 42 -8 4 -4 -19 -82 -36 -122
-117 -287 -313 -538 -640 -820 -127 -110 -462 -355 -485 -355 -3 0 -5 100 -5
223 l1 222 55 39 c139 96 401 338 506 466 115 141 192 272 234 396 l26 79 2
473 c0 261 -1 478 -4 483 -3 5 -57 8 -120 6 l-115 -2 -1 -465 c-1 -460 -1
-466 -24 -525 -50 -129 -143 -259 -305 -421 -111 -112 -197 -189 -313 -277
l-63 -49 -57 43 c-31 23 -59 45 -62 48 -3 3 -30 26 -60 51 -49 40 -126 109
-199 180 -106 104 -221 251 -271 351 -58 113 -59 126 -59 594 0 237 0 440 0
452 -1 22 -4 23 -109 22 -60 0 -113 -3 -118 -7z"/>
<path d="M3819 3367 c-5 -7 -4 -679 1 -687 3 -5 46 -14 95 -20 50 -6 100 -13
113 -16 l22 -4 0 365 0 364 -115 0 c-63 0 -116 -1 -116 -2z"/>
<path d="M2411 3138 c-47 -16 -124 -96 -139 -145 -27 -90 -5 -191 54 -250 l26
-26 -20 -71 c-11 -39 -29 -99 -40 -134 -11 -34 -17 -64 -13 -66 12 -6 441 -5
441 2 0 9 -20 81 -52 189 l-25 82 25 23 c46 44 67 97 66 173 0 61 -4 77 -32
120 -45 72 -108 109 -192 112 -36 1 -80 -3 -99 -9z"/>
</g>
</svg>
